<svg xmlns="http://www.w3.org/2000/svg" width="1024" height="1024" viewBox="0 0 1024 1024">
<defs>
<clipPath id="sq"><rect x="100" y="100" width="824" height="824" rx="185"/></clipPath>
<filter id="drop" x="-20%" y="-20%" width="140%" height="140%"><feGaussianBlur in="SourceAlpha" stdDeviation="14"/><feOffset dy="12"/><feComponentTransfer><feFuncA type="linear" slope="0.35"/></feComponentTransfer><feMerge><feMergeNode/><feMergeNode in="SourceGraphic"/></feMerge></filter>
<filter id="glyph" x="-20%" y="-20%" width="140%" height="140%"><feGaussianBlur in="SourceAlpha" stdDeviation="1.2"/><feOffset dy="1"/><feComponentTransfer><feFuncA type="linear" slope="0.45"/></feComponentTransfer><feMerge><feMergeNode/><feMergeNode in="SourceGraphic"/></feMerge></filter>
<linearGradient id="silver" x1="0" y1="37" x2="0" y2="94" gradientUnits="userSpaceOnUse"><stop stop-color="#ffffff"/><stop offset="1" stop-color="#d9d9de"/></linearGradient>
</defs>
<g filter="url(#drop)"><g clip-path="url(#sq)"><svg x="100" y="100" width="824" height="824" data-stage-art="ridge"  fill="none" preserveAspectRatio="xMinYMin slice" viewBox="222 0 8192 96" xmlns="http://www.w3.org/2000/svg"><defs><linearGradient id="_R_0_-stage-ridge-sky" x1="0" y1="0" x2="0" y2="96" gradientUnits="userSpaceOnUse"><stop style="stop-color:#55387c"></stop><stop offset="0.28" style="stop-color:#c8607c"></stop><stop offset="0.5" style="stop-color:#ffa95a"></stop><stop offset="0.7" style="stop-color:#ffd27a"></stop></linearGradient><radialGradient id="_R_0_-stage-ridge-sun" cx="0" cy="0" r="1" gradientTransform="translate(270 40) scale(120 60)" gradientUnits="userSpaceOnUse"><stop style="stop-color:#fff3c4"></stop><stop offset="0.15" style="stop-color:#ffe08a" stop-opacity="0.85"></stop><stop offset="0.5" style="stop-color:#ffb860" stop-opacity="0.3"></stop><stop offset="1" style="stop-color:#ff9a50" stop-opacity="0"></stop></radialGradient><linearGradient id="_R_0_-stage-ridge-scrim" x1="0" y1="0" x2="0" y2="96" gradientUnits="userSpaceOnUse"><stop style="stop-color:#2a1a4a" stop-opacity="0.55"></stop><stop offset="0.45" style="stop-color:#2a1a4a" stop-opacity="0.1925"></stop><stop offset="0.7" style="stop-color:#2a1a4a" stop-opacity="0"></stop></linearGradient><pattern id="_R_0_-stage-ridge-range" width="512" height="96" patternUnits="userSpaceOnUse"><rect width="512" height="96" fill="url(#_R_0_-stage-ridge-sun)"></rect><circle cx="270" cy="40" r="10" style="fill:#fff6d6"></circle><path d="M0 96V56L0 34.5L8 36.9L16 41.1L24 37.3L32 33.6L40 32.4L48 34.2L56 38.3L64 43.4L72 40.2L80 38.9L88 39.7L96 42.4L104 46.1L112 49.1L120 48.3L128 48.7L136 49.9L144 51.5L152 53.1L160 54L168 53.8L176 53.7L184 53.5L192 53.4L200 53.4L208 52.8L216 50.9L224 48.8L232 47.2L240 46.7L248 47.4L256 45.8L264 41.7L272 38.4L280 37.2L288 38.3L296 41.5L304 38.9L312 34.5L320 32.2L328 32.8L336 36.2L344 41.3L352 38.6L360 36L368 35.9L376 38.2L384 42.3L392 46.8L400 45.2L408 44.9L416 46.1L424 48.3L432 50.8L440 52.7L448 52.5L456 52.8L464 53.3L472 53.8L480 54.2L488 54.2L496 53.2L504 51.9L512 50.7L512 56V96Z" style="fill:#b4606f"></path><path d="M0 96V64L0 59.4L6 60.4L12 61.3L18 62.1L24 62.4L30 62.2L36 61.9L42 61.7L48 61.4L54 61.2L60 61.1L66 61.1L72 60.4L78 58.8L84 57.2L90 55.7L96 54.7L102 54.3L108 54.7L114 55.7L120 53.5L126 50.4L132 47.9L138 46.2L144 45.7L150 46.6L156 48.6L162 51.4L168 47.7L174 44.6L180 42.6L186 42L192 43L198 45.4L204 48.7L210 51L216 48.5L222 46.8L228 46.3L234 47.1L240 49L246 51.7L252 54.6L258 56L264 55.1L270 55L276 55.6L282 56.7L288 58.1L294 59.6L300 61L306 61.4L312 61.4L318 61.5L324 61.6L330 61.8L336 62L342 62.1L348 62.3L354 61.7L360 60.8L366 59.7L372 58.7L378 57.9L384 57.4L390 57.5L396 58.1L402 55.9L408 53.3L414 51L420 49.4L426 48.8L432 49.2L438 50.8L444 52.3L450 48.7L456 45.5L462 43.3L468 42.5L474 43.2L480 45.3L486 48.4L492 49.8L498 46.8L504 44.7L510 43.8L512 64V96Z" style="fill:#84446b"></path><path d="M0 96V72L0 58.5L5 58L10 58.2L15 59.1L20 60.6L25 62.4L30 60.6L35 58.6L40 57.1L45 56.3L50 56.2L55 56.8L60 58.2L65 60.1L70 62.3L75 62.5L80 61.1L85 60.2L90 59.9L95 60.2L100 61.1L105 62.4L110 64L115 65.7L120 67L125 66.5L130 66.3L135 66.4L140 66.8L145 67.4L150 68.2L155 69L160 69.7L165 70.4L170 70.4L175 70.4L180 70.4L185 70.4L190 70.4L195 70.4L200 70.4L205 70.4L210 70.5L215 70.3L220 69.7L225 69L230 68.2L235 67.5L240 66.9L245 66.5L250 66.4L255 66.7L260 67.2L265 65.6L270 63.9L275 62.3L280 61.1L285 60.3L290 60.1L295 60.5L300 61.4L305 62.8L310 62L315 59.8L320 58L325 56.7L330 56.2L335 56.4L340 57.3L345 58.9L350 60.9L355 62.1L360 60.3L365 58.9L370 58.1L375 57.9L380 58.5L385 59.7L390 61.4L395 63.3L400 65.2L405 64.7L410 64.1L415 63.9L420 64.1L425 64.8L430 65.7L435 66.8L440 67.9L445 69L450 69.4L455 69.3L460 69.4L465 69.5L470 69.8L475 70.1L480 70.4L485 70.6L490 70.9L495 71L500 70.7L505 70.3L510 69.9L512 72V96Z" style="fill:#3a2048"></path></pattern></defs><rect width="100%" height="96" fill="url(#_R_0_-stage-ridge-sky)"></rect><rect width="100%" height="96" fill="url(#_R_0_-stage-ridge-range)"></rect><rect width="100%" height="96" fill="url(#_R_0_-stage-ridge-scrim)"></rect></svg></g></g>
<g transform="translate(100 100) scale(6.4375)" filter="url(#glyph)"><path d="M33.4509 93V47.56H15.5309V37H64.3309V47.56H46.4109V93H33.4509ZM86.7253 93.96C82.832 93.96 78.9653 93.4533 75.1253 92.44C71.2853 91.3733 68.032 89.88 65.3653 87.96L70.4053 78.04C72.5386 79.5867 75.0186 80.8133 77.8453 81.72C80.672 82.6267 83.5253 83.08 86.4053 83.08C89.6586 83.08 92.2186 82.44 94.0853 81.16C95.952 79.88 96.8853 78.12 96.8853 75.88C96.8853 73.7467 96.0586 72.0667 94.4053 70.84C92.752 69.6133 90.0853 69 86.4053 69H80.4853V60.44L96.0853 42.76L97.5253 47.4H68.1653V37H107.365V45.4L91.8453 63.08L85.2853 59.32H89.0453C95.9253 59.32 101.125 60.8667 104.645 63.96C108.165 67.0533 109.925 71.0267 109.925 75.88C109.925 79.0267 109.099 81.9867 107.445 84.76C105.792 87.48 103.259 89.6933 99.8453 91.4C96.432 93.1067 92.0586 93.96 86.7253 93.96Z" fill="url(#silver)"/></g>
<rect x="100.5" y="100.5" width="823" height="823" rx="185" fill="none" stroke="#fff" stroke-opacity="0.12"/>
</svg>